<svg xmlns="http://www.w3.org/2000/svg" viewBox="0 0 79.76 216.74"><g data-name="Layer 2"><g data-name="Warstwa 1"><path d="M79.76 39.39c0 21.76-17.85 39.4-39.88 39.4S0 61.15 0 39.39 17.85 0 39.88 0s39.88 17.64 39.88 39.39" fill="#c7eafb"/><g fill="#6dcff6"><path d="M34.14 61.48h11.48c.6-3.86 4.14-4.93 6.1-4.93h11.72a3.57 3.57 0 0 0 3.78-3.73v-27a3.57 3.57 0 0 0-3.78-3.73H16.32a3.57 3.57 0 0 0-3.77 3.73v27a3.55 3.55 0 0 0 3.77 3.73h8.21l1.62.05h1.9c1.95 0 5.49 1.07 6.09 4.93m13.8 2.38H31.82v-1.2A3.58 3.58 0 0 0 28 58.93H16.32a5.92 5.92 0 0 1-6.18-6.11v-27c0-4.83 4-6.11 6.18-6.11h47.12a5.92 5.92 0 0 1 6.18 6.11v27c0 4.84-4 6.11-6.18 6.11H51.68a3.58 3.58 0 0 0-3.78 3.73z"/><path d="M62.58 26.73v25.05h-45.4v-25.1h45.37v.05zm2.32-2.41H14.79v29.85H64.9z"/></g><path d="M39.88 216.74a3.89 3.89 0 1 0-3.88-3.89 3.89 3.89 0 0 0 3.89 3.89M38.26 196.7a1.63 1.63 0 0 1 1.62-1.62 1.62 1.62 0 0 1 1.61 1.62 1.62 1.62 0 0 1-1.61 1.61 1.62 1.62 0 0 1-1.62-1.61zm0-6.55a1.63 1.63 0 0 1 1.62-1.62 1.62 1.62 0 0 1 1.61 1.62 1.61 1.61 0 0 1-1.61 1.61 1.61 1.61 0 0 1-1.62-1.61zm0-6.53a1.62 1.62 0 0 1 1.62-1.62 1.62 1.62 0 0 1 1.61 1.62 1.62 1.62 0 0 1-1.61 1.61 1.62 1.62 0 0 1-1.62-1.61zm0-6.55a1.62 1.62 0 0 1 1.62-1.61 1.62 1.62 0 0 1 1.61 1.61 1.62 1.62 0 0 1-1.61 1.61 1.62 1.62 0 0 1-1.62-1.61zm0-6.55a1.62 1.62 0 0 1 1.62-1.61 1.62 1.62 0 0 1 1.61 1.61 1.61 1.61 0 0 1-1.61 1.62 1.61 1.61 0 0 1-1.62-1.62zm0-6.53a1.61 1.61 0 0 1 1.62-1.61 1.61 1.61 0 0 1 1.61 1.62 1.62 1.62 0 0 1-1.61 1.61 1.62 1.62 0 0 1-1.62-1.61zm0-6.54a1.63 1.63 0 0 1 1.62-1.62 1.62 1.62 0 0 1 1.61 1.62 1.62 1.62 0 0 1-1.61 1.61 1.62 1.62 0 0 1-1.62-1.61zm0-6.55a1.63 1.63 0 0 1 1.62-1.62 1.62 1.62 0 0 1 1.61 1.62 1.62 1.62 0 0 1-1.61 1.61 1.62 1.62 0 0 1-1.62-1.61zm0-6.55a1.62 1.62 0 0 1 1.62-1.61 1.62 1.62 0 0 1 1.61 1.61 1.61 1.61 0 0 1-1.61 1.65 1.61 1.61 0 0 1-1.62-1.65zm0-6.53a1.62 1.62 0 0 1 1.62-1.61 1.62 1.62 0 0 1 1.61 1.61 1.62 1.62 0 0 1-1.61 1.61 1.62 1.62 0 0 1-1.62-1.61zm0-6.55a1.62 1.62 0 0 1 1.62-1.61 1.62 1.62 0 0 1 1.61 1.61 1.62 1.62 0 0 1-1.61 1.62 1.63 1.63 0 0 1-1.62-1.62zm0-6.54a1.63 1.63 0 0 1 1.62-1.62 1.62 1.62 0 0 1 1.61 1.62 1.61 1.61 0 0 1-1.61 1.61 1.61 1.61 0 0 1-1.62-1.61zm0-6.53a1.61 1.61 0 0 1 1.62-1.62 1.61 1.61 0 0 1 1.61 1.62 1.62 1.62 0 0 1-1.61 1.61 1.62 1.62 0 0 1-1.62-1.61zm0-6.55a1.62 1.62 0 0 1 1.62-1.65 1.62 1.62 0 0 1 1.61 1.61 1.62 1.62 0 0 1-1.61 1.61 1.62 1.62 0 0 1-1.62-1.57zm0-6.55a1.62 1.62 0 0 1 1.62-1.61 1.62 1.62 0 0 1 1.61 1.61 1.62 1.62 0 0 1-1.61 1.61 1.62 1.62 0 0 1-1.62-1.61zm0-6.53A1.61 1.61 0 0 1 39.88 97a1.61 1.61 0 0 1 1.61 1.61 1.62 1.62 0 0 1-1.61 1.61 1.62 1.62 0 0 1-1.62-1.65zm0-6.55a1.62 1.62 0 0 1 1.62-1.61A1.62 1.62 0 0 1 41.49 92a1.62 1.62 0 0 1-1.61 1.62A1.63 1.63 0 0 1 38.26 92z" fill="#c7eafb"/></g></g></svg>