<svg xmlns="http://www.w3.org/2000/svg" viewBox="0 0 49.46 87.87"><g data-name="Layer 2"><g data-name="Layer 1"><path d="M49.46 25A24.73 24.73 0 1 1 24.73 0a24.84 24.84 0 0 1 24.73 25" fill="#d4edfc"/><path d="M20.76 25.33c-1.29 3.13-2.09 6.25-1.74 7 .75-.21 2.53-2.88 4-5.94zM19 34.07a1.53 1.53 0 0 1-.67-.15c-2.38-1.07-.26-6.8 1.22-10.13l.36-.81 5.46 2.47-.36.81c-1 2.35-3.71 7.81-6 7.81" fill="#83d0f5"/><path d="M24.93 26.34l-1.6-.73c3.19-7.2 6.4-15.57 6.84-18.45-1.85 2.24-5.9 10.24-9.09 17.44l-1.61-.73c0-.05 2.19-4.92 4.56-9.61 4.77-9.46 6-9.82 7.13-9.34S32.81 6.62 29 16.5c-1.9 4.92-4.05 9.79-4.08 9.84M13.3 40.21h.14a7 7 0 0 0 6-3.71 1.94 1.94 0 0 0-1.78-2.71A1.93 1.93 0 0 0 15.85 35zm.14 1.79a9.35 9.35 0 0 1-1.64-.15l-1.14-.21 3.59-7.43A3.69 3.69 0 0 1 17.61 32 3.7 3.7 0 0 1 21 37.27 8.75 8.75 0 0 1 13.44 42" fill="#83d0f5"/><path fill="#83d0f5" d="M13.85 40.22h23.74v1.77H13.85zM24.73 87.87a2.41 2.41 0 1 0-2.41-2.41 2.41 2.41 0 0 0 2.41 2.41"/><path fill="none" stroke="#83d0f5" stroke-linecap="round" stroke-linejoin="round" stroke-width="2" stroke-dasharray="0 3.72" d="M24.73 75.78V55.31"/><path d="M24.73 79.5" fill="none" stroke="#83d0f5" stroke-linecap="round" stroke-linejoin="round" stroke-width="2"/></g></g></svg>