<svg xmlns="http://www.w3.org/2000/svg" viewBox="0 0 69.2 103.54"><path d="M69.2 34.75A34.6 34.6 0 1 1 34.6 0a34.68 34.68 0 0 1 34.6 34.75" fill="#d4edfc"/><path d="M43.45 54.8H16.8a3 3 0 0 1-3-3V36a3 3 0 0 1 3-3h13.14v2.47H16.8a.52.52 0 0 0-.51.52v15.82a.52.52 0 0 0 .51.52h26.65a.53.53 0 0 0 .52-.52V36a.53.53 0 0 0-.52-.52H38.6v-2.43h4.85a3 3 0 0 1 3 3v15.76a3 3 0 0 1-3 3" fill="#83d0f5"/><path fill="#83d0f5" d="M15.06 44.83H45.2v3.71H15.06zm17.81-15.34c-.21 0-.28.11-.35.26-.26.55-.64 1.6-1 2.63a15.25 15.25 0 0 0 2.63-2.05 1.73 1.73 0 0 0-1.15-.82h-.14M30.6 41.05a3.24 3.24 0 0 1-2.26-.93 3 3 0 0 1-1-2.38 6 6 0 0 1 1.82-3.47l-.75-.27c.05-.16 1.22-3.91 1.88-5.33A2.75 2.75 0 0 1 33 27a4.09 4.09 0 0 1 3.47 2.39 2.35 2.35 0 0 1-.54 2.61 17.53 17.53 0 0 1-3.79 2.85c-.94.72-2.3 2.13-2.34 3a.47.47 0 0 0 .2.43c.27.24 1 .89 3.51-1.45.32-.29.64-.63 1-1a8.47 8.47 0 0 1 3.77-2.75l1.21-.34c3-.82 7.09-1.95 8.59-4.51a12.49 12.49 0 0 1 6-4.82 10.78 10.78 0 0 0-2.91-6.07 20.7 20.7 0 0 0-5.31 2.5c-3.77 2.38-8.79 2.7-12.46 2.92a21.4 21.4 0 0 0-3.71.41c-2.7.81-3.36 5.52-3.38 7.27v.19l-.65 3.85-2.43-.42.64-3.75c0-1 .4-8.09 5.14-9.51a21.51 21.51 0 0 1 4.26-.5c3.4-.21 8.06-.51 11.3-2.55 4.11-2.58 6.7-3 6.81-3l.55-.08.42.37a13.13 13.13 0 0 1 4.29 9.19v.93l-.89.26s-3.83 1.16-5.54 4.05c-2 3.42-6.66 4.7-10.06 5.63l-1.18.34a6.41 6.41 0 0 0-2.65 2.05c-.35.39-.72.78-1.11 1.15q-2.58 2.37-4.58 2.37m3.97 62.53a2.41 2.41 0 1 0-2.41-2.41 2.41 2.41 0 0 0 2.41 2.41"/><path fill="none" stroke="#83d0f5" stroke-linecap="round" stroke-linejoin="round" stroke-width="2" stroke-dasharray="0 3.68" d="M34.6 91.49V74.9"/></svg>