<svg xmlns="http://www.w3.org/2000/svg" viewBox="0 0 112.5 112.5"><circle cx="56.25" cy="56.25" r="56.25" fill="#d4edfc"/><g fill="#83d0f5"><path d="M49.74 86.1h-30.1V26.4h30.1zm-27.1-3h24.1V29.4h-24.1zm57.52 3H53.43V56.81h26.73zm-23.72-3h20.71V59.82H56.44z"/><path d="M26.69 34.66h3.01v6.76h-3.01zm6.52 0h3v6.76h-3zm6.52 0h3v6.76h-3zM26.69 44.8h3.01v6.76h-3.01zm6.52 0h3v6.76h-3zm6.52 0h3v6.76h-3zm20.24 19.76h3v5.51h-3zm5.32 0h3.01v5.51h-3.01zm5.32 0h3v5.51h-3zm-10.64 8.28h3v5.51h-3zm5.32 0h3.01v5.51h-3.01zm5.32 0h3v5.51h-3zm-43.92-17.9h3.01v6.76h-3.01zm6.52 0h3v6.76h-3zm6.52 0h3v6.76h-3z"/><path d="M92.86 86.1H78.65v-3h11.21V36.16H66.77v22.15h-3.01V33.16h29.1V86.1z"/><path d="M69.88 41.35h3v10.26h-3zm7.27 0h3v10.26h-3z"/></g></svg>