<?xml version="1.0" encoding="utf-8"?>
<!-- Generator: Adobe Illustrator 16.0.3, SVG Export Plug-In . SVG Version: 6.00 Build 0)  -->
<!DOCTYPE svg PUBLIC "-//W3C//DTD SVG 1.1//EN" "http://www.w3.org/Graphics/SVG/1.1/DTD/svg11.dtd">
<svg version="1.1" id="Warstwa_1" xmlns="http://www.w3.org/2000/svg" xmlns:xlink="http://www.w3.org/1999/xlink" x="0px" y="0px"
	 width="841.89px" height="595.281px" viewBox="0 0 841.89 595.281" enable-background="new 0 0 841.89 595.281"
	 xml:space="preserve">
<g id="Layer_6" display="none">
</g>
<g id="Flat" display="none">
	<g display="inline">
		<path fill="#E02F2F" d="M420.554-0.093c-164.39,0-297.64,133.25-297.64,297.64c0,164.373,133.25,297.64,297.64,297.64
			c164.391,0,297.641-133.268,297.641-297.64C718.195,133.157,584.945-0.093,420.554-0.093z"/>
		<path fill="none" stroke="#FF6666" stroke-width="0.5" stroke-miterlimit="10" d="M420.554,25.169
			c-150.42,0-272.359,121.939-272.359,272.359c0,150.42,121.939,272.36,272.359,272.36s272.359-121.939,272.359-272.36
			C692.933,147.127,570.974,25.169,420.554,25.169z"/>
	</g>
	<g display="inline">
		<path fill="#FFFFFF" d="M420.945,388.105c-17.952,0-34.285-4.838-49.036-14.492c-14.733-9.674-25.783-22.1-33.15-37.279
			l-72.494-127.055c-15.18,27.141-22.082,57.519-22.082,88.362c0,44.199,14.38,82.744,43.158,115.652
			c28.778,32.908,64.569,52.588,107.374,59.043l51.269-88.732C440.812,385.128,432.218,388.105,420.945,388.105z"/>
		<path fill="#FFFFFF" d="M365.36,226.169c16.333-12.65,34.861-16.91,55.584-16.91c2.754,0,151.908,0,151.908,0
			c-15.664-26.695-36.945-49.26-63.863-64.904c-26.936-15.645-56.291-23.477-88.045-23.477c-27.625,0-53.408,5.86-77.331,17.617
			c-23.941,11.738-46.097,28.815-62.318,50.748l51.269,86.297C337.624,255.766,349.009,238.837,365.36,226.169z"/>
		<path fill="#FFFFFF" d="M584.423,231.359H481.72c17.951,17.952,29.689,40.981,29.689,66.281c0,18.881-5.283,36.145-15.887,51.789
			l-72.494,124.973c48.328-0.465,89.533-17.951,123.594-52.479c34.043-34.525,51.084-75.953,51.084-124.283
			C597.707,275.094,593.912,251.375,584.423,231.359z"/>
		<circle fill="#FFFFFF" cx="420.945" cy="297.64" r="66.281"/>
	</g>
</g>
<path fill="#DAEBFB" d="M420.554-0.093c-164.39,0-297.64,133.25-297.64,297.64c0,164.373,133.25,297.64,297.64,297.64
	c164.391,0,297.641-133.268,297.641-297.64C718.195,133.157,584.945-0.093,420.554-0.093z"/>
<g>
	<path fill="#9BCDF2" d="M420.945,388.105c-17.952,0-34.285-4.838-49.036-14.492c-14.733-9.674-25.783-22.1-33.15-37.279
		l-72.494-127.055c-15.18,27.141-22.082,57.519-22.082,88.362c0,44.199,14.38,82.744,43.158,115.652
		c28.778,32.908,64.569,52.588,107.374,59.043l51.269-88.732C440.812,385.128,432.218,388.105,420.945,388.105z"/>
	<path fill="#9BCDF2" d="M365.36,226.169c16.333-12.65,34.861-16.91,55.584-16.91c2.754,0,151.908,0,151.908,0
		c-15.664-26.695-36.945-49.26-63.863-64.904c-26.936-15.645-56.291-23.477-88.045-23.477c-27.625,0-53.408,5.86-77.331,17.617
		c-23.941,11.738-46.097,28.815-62.318,50.748l51.269,86.297C337.624,255.766,349.009,238.837,365.36,226.169z"/>
	<path fill="#9BCDF2" d="M584.423,231.359H481.72c17.951,17.952,29.689,40.981,29.689,66.281c0,18.881-5.283,36.145-15.887,51.789
		l-72.494,124.973c48.328-0.465,89.533-17.951,123.594-52.479c34.043-34.525,51.084-75.953,51.084-124.283
		C597.707,275.094,593.912,251.375,584.423,231.359z"/>
	<circle fill="#9BCDF2" cx="420.945" cy="297.64" r="66.281"/>
</g>
</svg>
