<svg xmlns="http://www.w3.org/2000/svg" viewBox="0 0 49.46 87.42"><path d="M24.73 87.42A2.41 2.41 0 1 0 22.32 85a2.4 2.4 0 0 0 2.41 2.4" fill="#83d0f5"/><path fill="none" stroke="#83d0f5" stroke-linecap="round" stroke-linejoin="round" stroke-width="2" stroke-dasharray="0 3.72" d="M24.73 75.33V54.87"/><path d="M49.46 24.73A24.73 24.73 0 1 1 24.73 0a24.73 24.73 0 0 1 24.73 24.73" fill="#d4edfc"/><path d="M19.14 31.8c-2.89 0-5.24 1.92-5.24 4.29s2.35 4.28 5.24 4.28 5.23-1.92 5.23-4.28S22 31.8 19.14 31.8m0 10.33c-3.86 0-7-2.71-7-6s3.14-6.05 7-6.05 7 2.71 7 6.05-3.14 6-7 6m6.99-28.75h-1.76c0-2.37-2.35-4.29-5.23-4.29S13.9 11 13.9 13.38h-1.76c0-3.34 3.14-6.05 7-6.05s7 2.71 7 6.05" fill="#86d0f4"/><path fill="#86d0f4" d="M12.14 13.38h1.76v22.71h-1.76zm11.8 26.97l-.44-1.7c3.62-.93 10.44-.68 12.94-.54v-25c-5.8-.89-9.19.28-10.31.79v22.19h-1.76v-23.2l.42-.26c.17-.11 4.34-2.6 12.69-1.11l.72.13V40l-.94-.07c-.09 0-9.21-.63-13.32.43"/></svg>