<svg xmlns="http://www.w3.org/2000/svg" viewBox="0 0 79.76 79.76"><g data-name="Layer 2"><g data-name="Warstwa 1"><circle cx="39.88" cy="39.88" r="39.88" transform="rotate(-84.35 39.876 39.884)" fill="#c7eafb"/><path d="M69.34 36.85l2.48-.85-2.12-6.39-2.48.81.69 2.09-6.63 2.13a22.56 22.56 0 0 0-12.62-15.09l1.77-3.94 1.79 1 1.26-2.29-5.93-3.26-1.26 2.29 1.85 1-1.92 4.26a22.49 22.49 0 0 0-27.64 29.78l-5.47 1.76.8 2.48 5.79-1.86a22.64 22.64 0 0 0 8.19 8.55l-2.82 6.27 2.38 1.07 2.75-6.12a22.47 22.47 0 0 0 31.74-20.49 23.71 23.71 0 0 0-.18-2.82l7-2.25zm-10.55-1.41L54 37l-8.57-15.9a19.93 19.93 0 0 1 13.36 14.34zm-39.21 4.61v-1l15.36-12.48 3.22 5.86L20.7 46.61a19.77 19.77 0 0 1-1.12-6.56zm12.61-18.49l1.47 2.69-13.47 10.92a20 20 0 0 1 12-13.61zM21.77 49.1l17.66-14.35 3.3 6-16.91 13.74a20 20 0 0 1-4.05-5.39zm29.39 7a19.65 19.65 0 0 1-7.1 3.29l-1.69-15L44 43.07zm-18.61-3.72l.67 6.54a19.76 19.76 0 0 1-5.35-2.74zm3.37 7.23l-1-9.19 5-4.07 1.53 13.48c-.67.06-1.35.1-2 .1a20.62 20.62 0 0 1-3.53-.32zm17.28-5.22L34.72 20.75a20 20 0 0 1 4.74-.57 20.28 20.28 0 0 1 2.6.17l9.45 17.44-4.1 1.32.8 2.48 4.57-1.47 4.61 8.5a20 20 0 0 1-4.19 5.77zm6.13-14.34a19.62 19.62 0 0 1-.73 5.34l-3.3-6.09 3.93-1.3a19.05 19.05 0 0 1 .1 2.05z" fill="#6dcff6"/></g></g></svg>