<svg xmlns="http://www.w3.org/2000/svg" viewBox="0 0 69.2 103.54"><path d="M69.2 34.75A34.6 34.6 0 1 1 34.6 0a34.68 34.68 0 0 1 34.6 34.75" fill="#d4edfc"/><path d="M22.37 35.6h6.91a18.74 18.74 0 0 1 1.2-6.5c1.33-3.22 5.23-14-.45-17.07a4.76 4.76 0 0 0-6 1.09c-1.93 2.06-2.92 5.5-2.71 9.46.36 6.72.84 11.13 1.07 13m9.49 2.48H20.24L20.08 37c0-.2-.74-5-1.24-14.31-.25-4.63 1-8.74 3.39-11.29a7.51 7.51 0 0 1 5.44-2.51 7.26 7.26 0 0 1 3.54.95c7.27 4 3.5 15.44 1.55 20.18a16.81 16.81 0 0 0-1 6.71zm-9.36 4.43v1.26a3.44 3.44 0 1 0 6.87 0v-1.26zM26 49.67a5.91 5.91 0 0 1-5.89-5.92V40h11.74v3.74A5.92 5.92 0 0 1 26 49.67m11.3-.12l6.53 2.29c.84-1.71 2.74-5.71 5.29-12 1.71-4.19 1.71-8.22 0-10.77A4.6 4.6 0 0 0 44.33 27c-6.38 1.06-6.22 12.49-6 16a18.61 18.61 0 0 1-1 6.54M45 54.88L34.06 51l.52-1.22a17.12 17.12 0 0 0 1.27-6.66C35.56 38 35.76 26 43.93 24.6a7.06 7.06 0 0 1 7.24 3.14c2.16 3.24 2.25 8.13.22 13.09-3.52 8.62-5.77 12.93-5.86 13.11zm-10.46 1.17l-.42 1.19a3.47 3.47 0 0 0 2.11 4.4 3.44 3.44 0 0 0 4.38-2.13l.39-1.19zm2.83 8.25a5.9 5.9 0 0 1-5.57-7.87L33 52.9l11.14 3.9-1.22 3.53a5.91 5.91 0 0 1-5.57 4m-2.75 39.21a2.41 2.41 0 1 0-2.41-2.41 2.41 2.41 0 0 0 2.41 2.41" fill="#83d0f5"/><path fill="none" stroke="#83d0f5" stroke-linecap="round" stroke-linejoin="round" stroke-width="2" stroke-dasharray="0 3.68" d="M34.6 91.49V74.9"/></svg>