<svg xmlns="http://www.w3.org/2000/svg" viewBox="0 0 112.5 112.5"><circle cx="56.25" cy="56.25" r="56.25" fill="#d4edfc"/><g fill="#83d0f5"><path d="M87.71 85.3H23.82V27.2l44.12 13.43v31.9h19.77zm-60.89-3h57.89v-6.76H26.82zm0-9.77h38.11V42.86L26.82 31.25z"/><path d="M77.95 68.78h3V83.8h-3zm1.38-18.32a5.74 5.74 0 1 1 5.74-5.74 5.74 5.74 0 0 1-5.74 5.74zm0-8.47a2.74 2.74 0 1 0 2.73 2.73A2.74 2.74 0 0 0 79.33 42z"/><path d="M79.33 70.78a9.36 9.36 0 1 1 9.35-9.35 9.36 9.36 0 0 1-9.35 9.35zm0-15.7a6.35 6.35 0 1 0 6.35 6.35 6.35 6.35 0 0 0-6.35-6.35zM54.42 63.9H37.98V33.54h3v27.35h10.44V37.5h3v26.4z"/><path d="M51.42 62.39h3v11.64h-3zm-13.44 0h3v11.64h-3z"/></g></svg>