<svg xmlns="http://www.w3.org/2000/svg" width="841.89" height="595.281" viewBox="0 0 841.89 595.281"><path fill="#DAEBFB" d="M420.945-.186c-164.39 0-297.64 133.25-297.64 297.64 0 164.372 133.25 297.641 297.64 297.641 164.391 0 297.641-133.27 297.641-297.641C718.585 133.063 585.335-.186 420.945-.186z"/><path fill="#9BCDF2" d="M578.638 266.648c2.064 10.976 3.182 22.49 3.182 34.49 0 93.83-62.82 160.557-157.676 160.557-90.743 0-164.26-73.516-164.26-164.259 0-90.743 73.517-164.26 164.26-164.26 44.35 0 81.404 16.314 109.848 42.804l-46.301 46.302v-.111c-17.244-16.426-39.104-24.853-63.547-24.853-54.208 0-98.239 45.781-98.239 99.988 0 54.188 44.05 100.101 98.239 100.101 49.186 0 82.633-28.127 89.535-66.727h-89.535v-64.068l154.494.036z"/></svg>