<svg xmlns="http://www.w3.org/2000/svg" viewBox="0 0 47.94 49.46"><path d="M47.94 24.73c0 13.66-10.73 24.73-24 24.73S0 38.39 0 24.73 10.73 0 24 0s24 11.07 24 24.73" fill="#d4edfc"/><path fill="#86d0f4" d="M12.82 7.91h1.71v33.63h-1.71zM33.41 7.91h1.71v33.63h-1.71z"/><path fill="#86d0f4" d="M7.67 34.47h32.6v1.76H7.67zM7.67 13.23h32.6v1.76H7.67zM23.58 4.95h.76v1.9h-.76zM23.58 7.77h.76v1.9h-.76zM23.58 10.6h.76v1.9h-.76z"/><path fill="#86d0f4" d="M23.58 13.43h.76v1.9h-.76zM23.58 16.25h.76v1.9h-.76zM23.58 19.08h.76v1.9h-.76zM23.58 21.9h.76v1.9h-.76zM23.58 24.73h.76v1.9h-.76zM23.58 27.56h.76v1.9h-.76zM23.58 30.38h.76v1.9h-.76zM23.58 33.21h.76v1.9h-.76zM23.58 36.04h.76v1.9h-.76zM23.58 38.86h.76v1.9h-.76zM23.58 41.69h.76v1.9h-.76zM4.79 24.35h1.84v.78H4.79zM7.53 24.35h1.84v.78H7.53zM10.27 24.35h1.84v.78h-1.84zM13.01 24.35h1.84v.78h-1.84zM15.75 24.35h1.84v.78h-1.84zM18.49 24.35h1.84v.78h-1.84zM21.23 24.35h1.84v.78h-1.84z"/><path fill="#86d0f4" d="M23.97 24.35h1.84v.78h-1.84zM26.71 24.35h1.84v.78h-1.84zM29.45 24.35h1.84v.78h-1.84zM32.19 24.35h1.84v.78h-1.84zM34.93 24.35h1.84v.78h-1.84zM37.67 24.35h1.84v.78h-1.84zM40.41 24.35h1.84v.78h-1.84z"/></svg>