<svg xmlns="http://www.w3.org/2000/svg" viewBox="0 0 97.2 171.8"><g data-name="Layer 2"><g data-name="Warstwa 1"><circle cx="48.6" cy="48.6" r="48.6" transform="rotate(-76.72 48.593 48.6)" fill="#c7eafb"/><g fill="#6dcff6"><path d="M66.8 81.82H30.4V71.16L40.68 55v-5.44h-4.06v-8.73H59.7v8.73H56V55l10.8 16.14zm-32.94-3.45h29.48v-6.18L52.58 56.05V46.1h3.67v-1.82H40.08v1.82h4.06V56L33.86 72.17zM50.61 23.91a5.45 5.45 0 1 1 5.45-5.45 5.45 5.45 0 0 1-5.45 5.45zm0-7.44a2 2 0 1 0 2 2 2 2 0 0 0-2-2zM40.51 32a5.62 5.62 0 1 1 5.62-5.62A5.62 5.62 0 0 1 40.51 32zm0-7.78a2.16 2.16 0 1 0 2.16 2.16 2.16 2.16 0 0 0-2.16-2.12zM51.47 38.06a5.19 5.19 0 1 1 5.19-5.18 5.18 5.18 0 0 1-5.19 5.18zm0-6.91a1.73 1.73 0 1 0 1.73 1.73 1.73 1.73 0 0 0-1.73-1.73z"/><path d="M61.52 68.86a10.12 10.12 0 0 1-5.05-1.21 7.8 7.8 0 0 0-7.12 0 10.2 10.2 0 0 1-5.06 1.21 10.16 10.16 0 0 1-5-1.21 7 7 0 0 0-3.56-.86v-3.46a10.12 10.12 0 0 1 5 1.21 7.8 7.8 0 0 0 7.12 0 11.16 11.16 0 0 1 10.11 0 7 7 0 0 0 3.56.86z"/></g><path d="M48.6 171.8a4.74 4.74 0 1 0-4.73-4.73 4.73 4.73 0 0 0 4.73 4.73M46.63 148.05a2 2 0 0 1 2-2 2 2 0 0 1 2 2 2 2 0 0 1-2 2 2 2 0 0 1-2-2zm0-7.31a2 2 0 0 1 2-2 2 2 0 0 1 2 2 2 2 0 0 1-2 2 2 2 0 0 1-2-2zm0-7.31a2 2 0 0 1 2-2 2 2 0 0 1 2 2 2 2 0 0 1-2 2 2 2 0 0 1-2-2zm0-7.31a2 2 0 0 1 2-2 2 2 0 0 1 2 2 2 2 0 0 1-2 2 2 2 0 0 1-2-2zm0-7.31a2 2 0 0 1 2-2 2 2 0 0 1 2 2 2 2 0 0 1-2 2 2 2 0 0 1-2-2zm0-7.31a2 2 0 0 1 2-2 2 2 0 0 1 2 2 2 2 0 0 1-2 2 2 2 0 0 1-2-2z" fill="#6dcff6"/></g></g></svg>