<svg xmlns="http://www.w3.org/2000/svg" viewBox="0 0 97.2 171.8"><g data-name="Layer 2"><g data-name="Warstwa 1"><circle cx="48.6" cy="48.6" r="48.6" transform="rotate(-76.72 48.593 48.6)" fill="#c7eafb"/><path d="M57.78 78.81a8.59 8.59 0 0 1-8.18-5.94l-.29-.87-13.61 4.43L32 65l-1.25.4a8.61 8.61 0 0 1-10.37-12.1 8.53 8.53 0 0 1 5-4.28l1.24-.41L22.83 37l13.61-4.44-.14-.43a8.62 8.62 0 0 1 5.51-10.86 8.74 8.74 0 0 1 2.68-.43 8.59 8.59 0 0 1 8.18 5.95l.25.75L66.64 23l4.77 14.62-4.49 1.47a5.16 5.16 0 0 0-3.3 6.5 5.17 5.17 0 0 0 6.5 3.3l4.49-1.46L79.34 62l-13.73 4.43.36 1.1a8.6 8.6 0 0 1-8.19 11.28zm-6.26-11.18l1.36 4.17a5.16 5.16 0 0 0 9.81-3.2l-1.43-4.38L75 59.74l-2.6-7.94-1.2.39a8.38 8.38 0 0 1-2.67.43 8.61 8.61 0 0 1-2.67-16.8l1.21-.39-2.63-8-13.74 4.43-1.31-4A5.16 5.16 0 0 0 39.58 31l1.21 3.71-13.61 4.46L31 50.83l-4.54 1.47a5.16 5.16 0 0 0 1.59 10.06 5.45 5.45 0 0 0 1.6-.25l4.53-1.48 3.73 11.44zM48.6 171.8a4.74 4.74 0 1 0-4.73-4.73 4.73 4.73 0 0 0 4.73 4.73M46.63 148.05a2 2 0 0 1 2-2 2 2 0 0 1 2 2 2 2 0 0 1-2 2 2 2 0 0 1-2-2zm0-7.31a2 2 0 0 1 2-2 2 2 0 0 1 2 2 2 2 0 0 1-2 2 2 2 0 0 1-2-2zm0-7.31a2 2 0 0 1 2-2 2 2 0 0 1 2 2 2 2 0 0 1-2 2 2 2 0 0 1-2-2zm0-7.31a2 2 0 0 1 2-2 2 2 0 0 1 2 2 2 2 0 0 1-2 2 2 2 0 0 1-2-2zm0-7.31a2 2 0 0 1 2-2 2 2 0 0 1 2 2 2 2 0 0 1-2 2 2 2 0 0 1-2-2zm0-7.31a2 2 0 0 1 2-2 2 2 0 0 1 2 2 2 2 0 0 1-2 2 2 2 0 0 1-2-2z" fill="#6dcff6"/></g></g></svg>