<svg xmlns="http://www.w3.org/2000/svg" viewBox="0 0 97.2 171.8"><g data-name="Layer 2"><g data-name="Warstwa 1"><circle cx="48.6" cy="48.6" r="48.6" transform="rotate(-76.72 48.593 48.6)" fill="#c7eafb"/><g fill="#6dcff6"><path d="M37.25 66.35a3.08 3.08 0 0 1-1.31-.28c-4.67-2.09-.51-13.26 2.39-19.73l.67-1.58 10.73 4.8-.7 1.58C47 55.72 41.77 66.35 37.25 66.35zm3.55-17c-2.55 6.08-4.1 12.16-3.43 13.53 1.48-.4 5-5.62 7.82-11.57z"/><path d="M49 51.3l-3.16-1.41c6.28-14 12.58-30.34 13.44-35.95-3.62 4.37-11.59 19.94-17.86 34l-3.16-1.44c0-.1 4.3-9.58 9-18.73 9.37-18.42 11.89-19.13 14-18.18s3.26 3.3-4.22 22.55C53.28 41.72 49 51.21 49 51.3zM26.42 81.78a18 18 0 0 1-3.23-.29l-2.25-.4L28 66.62a7.25 7.25 0 0 1 13.21 6c-.21.38-4.69 9.16-14.79 9.16zm-.28-3.45h.28c7.93 0 11.53-6.92 11.68-7.22a3.8 3.8 0 0 0-7-3z"/></g><path fill="#6dcff6" d="M27.22 78.33h46.65v3.46H27.22zM48.6 171.8a4.74 4.74 0 1 0-4.73-4.73 4.73 4.73 0 0 0 4.73 4.73M46.63 148.05a2 2 0 0 1 2-2 2 2 0 0 1 2 2 2 2 0 0 1-2 2 2 2 0 0 1-2-2zm0-7.31a2 2 0 0 1 2-2 2 2 0 0 1 2 2 2 2 0 0 1-2 2 2 2 0 0 1-2-2zm0-7.31a2 2 0 0 1 2-2 2 2 0 0 1 2 2 2 2 0 0 1-2 2 2 2 0 0 1-2-2zm0-7.31a2 2 0 0 1 2-2 2 2 0 0 1 2 2 2 2 0 0 1-2 2 2 2 0 0 1-2-2zm0-7.31a2 2 0 0 1 2-2 2 2 0 0 1 2 2 2 2 0 0 1-2 2 2 2 0 0 1-2-2zm0-7.31a2 2 0 0 1 2-2 2 2 0 0 1 2 2 2 2 0 0 1-2 2 2 2 0 0 1-2-2z"/></g></g></svg>