<svg xmlns="http://www.w3.org/2000/svg" width="841.89" height="595.281" viewBox="0 0 841.89 595.281"><path fill="#DAEBFB" d="M420.945 0c-164.39 0-297.64 133.25-297.64 297.64 0 164.371 133.25 297.641 297.641 297.641 164.39 0 297.64-133.271 297.64-297.641C718.585 133.25 585.335 0 420.945 0z"/><g fill-rule="evenodd" clip-rule="evenodd" fill="#9BCDF2"><path d="M279.644 240.729c.001-23.338-.008-46.675.009-70.012.004-5.395 3.441-10.122 8.576-11.769 1.242-.397 2.594-.646 3.895-.646 46.713-.028 93.428-.137 140.14.057 14.145.058 28.012 2.616 41.457 7.099 36.303 12.104 64.063 34.775 83.291 67.824 8.311 14.284 13.838 29.647 16.861 45.904 1.285 6.91 2.262 13.864 2.33 20.896.061 6.359.178 12.748-.326 19.076-1.561 19.59-6.922 38.145-15.967 55.609-7.543 14.562-17.207 27.554-29.061 38.884-19.244 18.396-41.777 30.851-67.656 37.2-7.049 1.729-14.178 3.06-21.426 3.505-6.074.373-12.18.839-18.25.622-33.298-1.186-63.052-12.139-88.987-33.113-19.136-15.475-33.485-34.636-43.152-57.271-4.552-10.655-7.754-21.713-9.665-33.15-1.47-8.8-2.094-17.651-2.08-26.566.03-21.384.01-42.767.011-64.149zM427.98 408.498c56.285-.217 101.738-45.25 101.832-101.692.096-56.198-45.055-101.838-101.666-101.92-56.29-.082-101.835 45.192-101.892 101.694-.057 56.237 45.155 101.621 101.726 101.918z"/><path d="M357.763 306.618c.28-39.067 31.225-70.224 70.208-70.171 39.074.054 70.303 31.292 70.277 70.258-.025 39.012-31.352 70.178-70.365 70.174-39.128-.004-69.899-31.324-70.12-70.261zm109.52.029c-.008-21.604-17.607-39.216-39.207-39.231-21.667-.015-39.295 17.602-39.289 39.264.006 21.606 17.606 39.221 39.205 39.233 21.658.015 39.297-17.613 39.291-39.266z"/></g></svg>