<svg xmlns="http://www.w3.org/2000/svg" width="126.709" height="126.709" viewBox="0 0 126.709 126.709"><circle fill="#DBECFC" cx="63.354" cy="63.354" r="56.25"/><g fill="#9CCFF3"><path d="M84.417 101.811H42.292V89.47L54.19 70.791v-6.327h-4.697V54.359h26.716v10.104h-4.241v6.305l12.449 18.679v12.364zm-38.125-4h34.125v-7.152l-12.449-18.68V60.464h4.241V58.36H53.493v2.104h4.697v11.493L46.292 90.636v7.175zM65.682 34.779c-3.478 0-6.307-2.829-6.307-6.307s2.829-6.307 6.307-6.307 6.307 2.829 6.307 6.307-2.83 6.307-6.307 6.307zm0-8.613c-1.271 0-2.307 1.035-2.307 2.307s1.035 2.307 2.307 2.307 2.307-1.035 2.307-2.307-1.036-2.307-2.307-2.307zM53.994 44.185c-3.584 0-6.5-2.916-6.5-6.5s2.916-6.5 6.5-6.5 6.5 2.916 6.5 6.5-2.916 6.5-6.5 6.5zm0-9c-1.379 0-2.5 1.121-2.5 2.5s1.121 2.5 2.5 2.5 2.5-1.121 2.5-2.5-1.121-2.5-2.5-2.5zM66.682 51.159c-3.309 0-6-2.691-6-6s2.691-6 6-6 6 2.691 6 6-2.692 6-6 6zm0-8c-1.103 0-2 .897-2 2s.897 2 2 2 2-.897 2-2-.898-2-2-2z"/><path d="M78.31 86.801c-2.946 0-4.488-.74-5.848-1.394-1.163-.558-2.082-.999-4.118-.999-2.037 0-2.956.441-4.12.999-1.36.653-2.903 1.394-5.852 1.394s-4.49-.74-5.852-1.394c-1.164-.558-2.083-.999-4.121-.999v-4c2.948 0 4.49.74 5.852 1.394 1.164.558 2.083.999 4.121.999s2.957-.441 4.121-.999c1.36-.653 2.903-1.394 5.851-1.394s4.489.74 5.85 1.394c1.162.558 2.08.999 4.116.999v4z"/></g></svg>