<?xml version="1.0" encoding="utf-8"?>
<!-- Generator: Adobe Illustrator 16.0.3, SVG Export Plug-In . SVG Version: 6.00 Build 0)  -->
<!DOCTYPE svg PUBLIC "-//W3C//DTD SVG 1.1//EN" "http://www.w3.org/Graphics/SVG/1.1/DTD/svg11.dtd">
<svg version="1.1" id="Warstwa_1" xmlns="http://www.w3.org/2000/svg" xmlns:xlink="http://www.w3.org/1999/xlink" x="0px" y="0px"
	 width="841.89px" height="595.281px" viewBox="0 0 841.89 595.281" enable-background="new 0 0 841.89 595.281"
	 xml:space="preserve">
<g id="Layer_6" display="none">
	<rect x="-689.011" y="-750.295" display="inline" fill="#E2E2E2" width="3720.503" height="3622.541"/>
</g>
<g id="Flat" display="none">
	<g display="inline">
		<path fill="#333333" d="M420.945,0c-164.39,0-297.64,133.25-297.64,297.64c0,164.371,133.25,297.641,297.64,297.641
			c164.391,0,297.641-133.27,297.641-297.641C718.585,133.25,585.335,0,420.945,0z"/>
		<path fill="none" stroke="#FF6666" stroke-width="0.5" stroke-miterlimit="10" d="M420.945,25.281
			c-150.42,0-272.359,121.939-272.359,272.359S270.525,570,420.945,570S693.304,448.06,693.304,297.64
			S571.365,25.281,420.945,25.281z"/>
	</g>
	<path display="inline" fill="#FFFFFF" d="M575.234,426.779V312.615c0-61.165-32.646-89.626-76.195-89.626
		c-35.141,0-50.879,19.328-59.641,32.889v-28.22h-66.187c0.874,18.695,0,199.121,0,199.121h66.187V315.574
		c0-5.936,0.428-11.889,2.178-16.129c4.779-11.887,15.662-24.202,33.949-24.202c23.959,0,33.541,18.249,33.541,45.019v106.537
		L575.234,426.779L575.234,426.779z M303.47,200.479c23.067,0,37.447-15.31,37.447-34.415c-0.428-19.533-14.38-34.396-37.019-34.396
		s-37.428,14.863-37.428,34.396c0,19.124,14.361,34.415,36.591,34.415H303.47z M336.564,426.779V227.658h-66.169v199.121H336.564
		L336.564,426.779z"/>
</g>
<g>
	<path fill="#DAEBFB" d="M420.945,0c-164.39,0-297.64,133.25-297.64,297.64c0,164.371,133.25,297.641,297.64,297.641
		c164.391,0,297.641-133.27,297.641-297.641C718.585,133.25,585.335,0,420.945,0z"/>
</g>
<path fill="#9BCDF2" d="M575.234,426.779V312.615c0-61.165-32.646-89.626-76.195-89.626c-35.141,0-50.879,19.328-59.641,32.889
	v-28.22h-66.187c0.874,18.695,0,199.121,0,199.121h66.187V315.574c0-5.936,0.428-11.889,2.178-16.129
	c4.779-11.887,15.662-24.202,33.949-24.202c23.959,0,33.541,18.249,33.541,45.019v106.537L575.234,426.779L575.234,426.779z
	 M303.47,200.479c23.067,0,37.447-15.31,37.447-34.415c-0.428-19.533-14.38-34.396-37.019-34.396s-37.428,14.863-37.428,34.396
	c0,19.124,14.361,34.415,36.591,34.415H303.47z M336.564,426.779V227.658h-66.169v199.121H336.564L336.564,426.779z"/>
</svg>
