<svg xmlns="http://www.w3.org/2000/svg" width="841.89" height="595.281" viewBox="0 0 841.89 595.281"><path fill="#DAEBFB" d="M420.945 0c-164.39 0-297.64 133.25-297.64 297.64 0 164.371 133.25 297.641 297.64 297.641 164.391 0 297.641-133.27 297.641-297.641C718.585 133.25 585.335 0 420.945 0z"/><path fill="#9BCDF2" d="M420.945 102.946c-69.387 0-125.641 56.254-125.641 125.642 0 11.626 1.581 22.899 4.539 33.596a123.952 123.952 0 0 0 4.204 12.557l3.813 8.65 113.084 208.943 113.234-209.259 3.441-7.794c1.711-4.26 3.18-8.631 4.426-13.115a125.775 125.775 0 0 0 4.539-33.596c.001-69.37-56.252-125.624-125.639-125.624zm0 180.073c-30.694 0-55.584-24.89-55.584-55.584 0-30.694 24.89-55.584 55.584-55.584 30.693 0 55.584 24.89 55.584 55.584 0 30.712-24.891 55.584-55.584 55.584z"/></svg>