<svg xmlns="http://www.w3.org/2000/svg" width="126.709" height="126.709" viewBox="0 0 126.709 126.709"><circle fill="#DBECFC" cx="63.354" cy="63.354" r="56.25"/><g fill="#9CCFF3"><path d="M50.221 83.903a3.686 3.686 0 0 1-1.517-.322c-5.406-2.42-.587-15.351 2.768-22.844l.816-1.825 12.425 5.561-.817 1.826c-2.37 5.293-8.445 17.604-13.675 17.604zm4.107-19.695c-2.947 7.048-4.751 14.083-3.967 15.669 1.707-.472 5.753-6.504 9.044-13.397l-5.077-2.272z"/><path d="M63.814 66.483l-3.65-1.635c7.266-16.232 14.563-35.115 15.551-41.612-4.187 5.065-13.408 23.087-20.675 39.319l-3.65-1.635c.049-.109 4.97-11.086 10.365-21.68 10.854-21.311 13.767-22.134 16.212-21.034 2.45 1.096 3.773 3.816-4.888 26.103-4.307 11.083-9.215 22.064-9.265 22.174zM37.68 101.764c-1.214 0-2.469-.113-3.729-.338l-2.611-.464 8.18-16.752c1.322-2.957 4.33-4.905 7.635-4.905a8.34 8.34 0 0 1 3.427.734c4.224 1.891 6.121 6.865 4.23 11.089-.25.506-5.436 10.636-17.132 10.636zm-.326-4.003l.325.003c9.181 0 13.347-8.011 13.52-8.352.951-2.129-.042-4.732-2.253-5.723a4.353 4.353 0 0 0-1.792-.385 4.405 4.405 0 0 0-4.013 2.6l-5.787 11.857z"/></g><path fill="#9CCFF3" d="M38.604 97.764h54v4h-54z"/></svg>