<svg xmlns="http://www.w3.org/2000/svg" viewBox="0 0 47.94 49.46">
  <path d="M47.94 24.73c0 13.66-10.73 24.73-24 24.73S0 38.39 0 24.73 10.73 0 24 0s24 11.07 24 24.73" fill="#d4edfc" />
  <path fill="#83d0f5" d="M12.88 38.75h24.34v1.76H12.88z" />
  <path d="M13 35.91l.28 2.74 2.19-1.57 8.48-19.21-2.48-1.16zm.19 4.6a1.55 1.55 0 0 1-.66-.15 1.63 1.63 0 0 1-.95-1.36l-.36-3.42 9.38-21.2L26.17 17 16.8 38.24l-2.73 2a1.53 1.53 0 0 1-.91.3M23.53 12L26 13.14 27 11a1.42 1.42 0 0 0-.68-1.86 1.3 1.3 0 0 0-1 0 1.36 1.36 0 0 0-.76.73zm3.32 3.49l-5.58-2.62 1.66-3.76a3.11 3.11 0 0 1 1.71-1.65 3 3 0 0 1 2.36.06 3.21 3.21 0 0 1 1.52 4.19z" fill="#83d0f5" />
</svg>