<svg xmlns="http://www.w3.org/2000/svg" viewBox="0 0 49.46 134.4"><path d="M49.46 24.73A24.73 24.73 0 1 1 24.73 0a24.73 24.73 0 0 1 24.73 24.73" fill="#d4edfc"/><path fill="#83d0f5" d="M13.29 38.75H38.4v1.76H13.29z"/><path d="M13.38 35.91l.29 2.74 2.26-1.57 8.75-19.21-2.56-1.16zm.2 4.6A1.65 1.65 0 0 1 12 39l-.37-3.42 9.67-21.24L27 17l-9.67 21.24-2.81 2a1.62 1.62 0 0 1-.94.3M24.28 12l2.55 1.16 1-2.16A1.4 1.4 0 0 0 26 9.09a1.37 1.37 0 0 0-.78.73zm3.42 3.49L22 12.85l1.71-3.76a3.16 3.16 0 1 1 5.75 2.62z" fill="#83d0f5"/><path d="M24.73 134.4a2.41 2.41 0 1 0-2.41-2.4 2.4 2.4 0 0 0 2.41 2.4" fill="#d4edfc"/><path fill="none" stroke="#d4edfc" stroke-linecap="round" stroke-linejoin="round" stroke-width="2" stroke-dasharray="0 4.06" d="M24.73 121.98V55.04"/></svg>