<svg xmlns="http://www.w3.org/2000/svg" width="126.709" height="126.709" viewBox="0 0 126.709 126.709"><circle fill="#DBECFC" cx="63.354" cy="63.354" r="56.25"/><path fill="#9CCFF3" d="M73.983 98.325a9.946 9.946 0 0 1-9.475-6.879l-.333-1.021-15.754 5.138-4.317-13.24-1.438.468a9.958 9.958 0 0 1-3.091.493 9.944 9.944 0 0 1-9.474-6.879 9.903 9.903 0 0 1 .59-7.605 9.9 9.9 0 0 1 5.796-4.961l1.438-.469-4.399-13.487 15.754-5.138-.162-.5a9.895 9.895 0 0 1 .59-7.605 9.907 9.907 0 0 1 5.796-4.961 9.969 9.969 0 0 1 3.092-.493 9.946 9.946 0 0 1 9.475 6.879l.284.871 15.889-5.182 5.519 16.92-5.197 1.694a5.927 5.927 0 0 0-3.469 2.97 5.926 5.926 0 0 0-.354 4.554 5.954 5.954 0 0 0 7.523 3.823l5.196-1.692 5.479 16.795-15.89 5.181.413 1.269c1.704 5.225-1.161 10.861-6.387 12.566a10.048 10.048 0 0 1-3.094.491zm-7.245-12.943l1.573 4.824a5.955 5.955 0 0 0 7.524 3.823 5.974 5.974 0 0 0 3.824-7.523l-1.653-5.071 15.89-5.181-2.998-9.191-1.395.454a9.956 9.956 0 0 1-3.09.493 9.946 9.946 0 0 1-9.475-6.879 9.905 9.905 0 0 1 .59-7.606 9.903 9.903 0 0 1 5.795-4.96l1.395-.454-3.038-9.314-15.889 5.182-1.524-4.674a5.954 5.954 0 0 0-7.524-3.823 5.936 5.936 0 0 0-3.471 2.971 5.924 5.924 0 0 0-.353 4.553l1.4 4.303-15.752 5.138 4.399 13.487-5.24 1.709a5.926 5.926 0 0 0-3.47 2.97 5.926 5.926 0 0 0-.354 4.554 5.953 5.953 0 0 0 7.523 3.823l5.24-1.708 4.317 13.24 15.756-5.14z"/></svg>