<svg xmlns="http://www.w3.org/2000/svg" viewBox="0 0 112.5 112.5"><circle cx="56.25" cy="56.25" r="56.25" fill="#d4edfc"/><g fill="#83d0f5"><path d="M82.25 33.94h3.05v44.61h-3.05z"/><path d="M68 78.56h-3.06V57.9h18.84v3.06H68v17.6zM27.2 33.94h3.05v44.61H27.2z"/><path d="M47.56 78.56H44.5v-17.6H28.72V57.9h18.84v20.66zM37.38 51.07h38.08v3.05H37.38z"/><path d="M54.89 52.6h3.05v25.96h-3.05zm12.41-2.8H45.54v-1.52a10.88 10.88 0 1 1 21.76 0zm-18.56-3h15.35a7.83 7.83 0 0 0-15.35 0zM28.72 62.9h17.31v3.05H28.72zm37.75 0h17.31v3.05H66.47z"/></g></svg>