<svg xmlns="http://www.w3.org/2000/svg" viewBox="0 0 47.94 49.46">
  <path d="M47.94 24.73c0 13.66-10.73 24.73-24 24.73S0 38.39 0 24.73 10.73 0 24 0s24 11.07 24 24.73" fill="#d4edfc" />
  <path d="M15.3 15a6.08 6.08 0 0 0 0 12.15 6.08 6.08 0 0 0 0-12.15m0 13.91A7.72 7.72 0 0 1 7.71 21a7.72 7.72 0 0 1 7.59-7.8 7.71 7.71 0 0 1 7.58 7.8 7.72 7.72 0 0 1-7.58 7.83m9.18.04l-4.22 7.54a1.76 1.76 0 0 0 0 1.75 1.65 1.65 0 0 0 1.46.88h8.44a1.66 1.66 0 0 0 1.47-.88 1.76 1.76 0 0 0 0-1.75l-4.22-7.54a1.67 1.67 0 0 0-2.93 0m5.68 11.93h-8.44a3.34 3.34 0 0 1-2.94-1.8 3.54 3.54 0 0 1 0-3.51L23 28a3.35 3.35 0 0 1 5.89 0l4.22 7.54a3.59 3.59 0 0 1 0 3.51 3.36 3.36 0 0 1-2.95 1.76M26.8 21.82h8v-8.21h-8zm9.66 1.76H25.09V11.85h11.37z" fill="#83d0f5" data-name="Layer 1" />
</svg>