<svg xmlns="http://www.w3.org/2000/svg" viewBox="0 0 49.46 134.4"><path d="M49.46 109.67a24.73 24.73 0 1 1-24.73-24.73 24.73 24.73 0 0 1 24.73 24.73" fill="#d4edfc"/><path fill="#86d0f4" d="M13.23 92.86h1.76v33.63h-1.76zm21.24 0h1.76v33.63h-1.76z"/><path fill="#86d0f4" d="M7.91 119.42h33.63v1.76H7.91zm0-21.25h33.63v1.76H7.91zm16.42-8.28h.78v1.9h-.78zm0 2.83h.78v1.9h-.78zm0 2.82h.78v1.9h-.78z"/><path fill="#86d0f4" d="M24.33 98.37h.78v1.9h-.78zm0 2.82h.78v1.9h-.78zm0 2.83h.78v1.9h-.78zm0 2.83h.78v1.9h-.78zm0 2.82h.78v1.9h-.78zm0 2.83h.78v1.9h-.78zm0 2.83h.78v1.9h-.78zm0 2.82h.78v1.9h-.78zm0 2.83h.78v1.9h-.78zm0 2.83h.78v1.9h-.78zm0 2.82h.78v1.9h-.78zM4.95 109.29h1.9v.78h-1.9zm2.82 0h1.9v.78h-1.9zm2.83 0h1.9v.78h-1.9zm2.83 0h1.9v.78h-1.9zm2.82 0h1.9v.78h-1.9zm2.83 0h1.9v.78h-1.9zm2.82 0h1.9v.78h-1.9z"/><path fill="#86d0f4" d="M24.73 109.29h1.9v.78h-1.9zm2.83 0h1.9v.78h-1.9zm2.82 0h1.9v.78h-1.9zm2.83 0h1.9v.78h-1.9zm2.83 0h1.9v.78h-1.9z"/><path d="M24.73 0a2.41 2.41 0 1 0 2.41 2.41A2.41 2.41 0 0 0 24.73 0" fill="#d4edfc"/><path fill="none" stroke="#d4edfc" stroke-linecap="round" stroke-linejoin="round" stroke-width="2" stroke-dasharray="0 4.06" d="M24.73 12.43v66.93"/></svg>