<svg xmlns="http://www.w3.org/2000/svg" viewBox="0 0 49.46 87.42"><path d="M49.46 24.73A24.73 24.73 0 1 1 24.73 0a24.73 24.73 0 0 1 24.73 24.73" fill="#d4edfc"/><path fill="#86d0f4" d="M13.23 7.91h1.76v33.63h-1.76zm21.24 0h1.76v33.63h-1.76z"/><path fill="#86d0f4" d="M7.91 34.47h33.63v1.76H7.91zm0-21.24h33.63v1.76H7.91zm16.42-8.28h.78v1.9h-.78zm0 2.82h.78v1.9h-.78zm0 2.83h.78v1.9h-.78z"/><path fill="#86d0f4" d="M24.33 13.43h.78v1.9h-.78zm0 2.82h.78v1.9h-.78zm0 2.83h.78v1.9h-.78zm0 2.82h.78v1.9h-.78zm0 2.83h.78v1.9h-.78zm0 2.83h.78v1.9h-.78zm0 2.82h.78v1.9h-.78zm0 2.83h.78v1.9h-.78zm0 2.83h.78v1.9h-.78zm0 2.82h.78v1.9h-.78zm0 2.83h.78v1.9h-.78zM4.95 24.35h1.9v.78h-1.9zm2.82 0h1.9v.78h-1.9zm2.83 0h1.9v.78h-1.9zm2.83 0h1.9v.78h-1.9zm2.82 0h1.9v.78h-1.9zm2.83 0h1.9v.78h-1.9zm2.82 0h1.9v.78h-1.9z"/><path fill="#86d0f4" d="M24.73 24.35h1.9v.78h-1.9zm2.83 0h1.9v.78h-1.9zm2.82 0h1.9v.78h-1.9zm2.83 0h1.9v.78h-1.9zm2.83 0h1.9v.78h-1.9zm2.82 0h1.9v.78h-1.9zm2.83 0h1.9v.78h-1.9z"/><path d="M24.73 87.42A2.41 2.41 0 1 0 22.32 85a2.4 2.4 0 0 0 2.41 2.4" fill="#83d0f5"/><path fill="none" stroke="#83d0f5" stroke-linecap="round" stroke-linejoin="round" stroke-width="2" stroke-dasharray="0 3.72" d="M24.73 75.33V54.87"/></svg>