<svg xmlns="http://www.w3.org/2000/svg" viewBox="0 0 69.2 103.54"><path d="M69.2 34.75A34.6 34.6 0 1 1 34.6 0a34.68 34.68 0 0 1 34.6 34.75" fill="#d4edfc"/><path d="M50.7 34.69h-2.46a18.63 18.63 0 1 0-37.26 0H8.52a21.09 21.09 0 1 1 42.18 0" fill="#83d0f5"/><path d="M21 34.69h-2.51a3.76 3.76 0 1 0-7.51 0H8.52a6.22 6.22 0 1 1 12.43 0" fill="#83d0f5"/><path d="M18.49 34.75c0-.65-.68-15.67 9.89-20.81v-2.17h2.46v3.79l-.76.32c-6 2.53-8.08 9-8.79 13.59a6.22 6.22 0 0 1 9.63 5.22h-2.46a3.76 3.76 0 1 0-7.51 0z" fill="#83d0f5"/><path d="M40.81 34.75l-2.46-.06a3.76 3.76 0 1 0-7.51 0h-2.46a6.24 6.24 0 0 1 6.21-6.24 6.14 6.14 0 0 1 3.41 1c-.72-4.63-2.8-11.07-8.79-13.59l-.75-.32v-3.77h2.46v2.17c10.57 5.14 9.92 20.16 9.89 20.81" fill="#83d0f5"/><path d="M50.78 34.69h-2.46a3.76 3.76 0 1 0-7.51 0h-2.46a6.22 6.22 0 1 1 12.43 0m-22.4-19.95h2.46v43.02h-2.46z" fill="#83d0f5"/><path fill="#83d0f5" d="M41.89 54.2H14.57l-3.8-7.85 2.21-1.08 3.13 6.46h25.78v2.47z"/><path fill="#83d0f5" d="M19.83 57.39l-2.27-.94 1.61-3.96 2.28.94-1.62 3.96zm15.86 0l-1.62-3.96 2.27-.94 1.62 3.96-2.27.94zm15.11-7.11a3.42 3.42 0 1 0 3.41 3.42 3.42 3.42 0 0 0-3.41-3.42m0 9.31a5.9 5.9 0 1 1 5.87-5.89 5.88 5.88 0 0 1-5.87 5.89m-16.2 43.95a2.41 2.41 0 1 0-2.41-2.41 2.41 2.41 0 0 0 2.41 2.41"/><path fill="none" stroke="#83d0f5" stroke-linecap="round" stroke-linejoin="round" stroke-width="2" stroke-dasharray="0 3.68" d="M34.6 91.49V74.9"/></svg>