<svg xmlns="http://www.w3.org/2000/svg" viewBox="0 0 79.76 79.76"><g data-name="Layer 2"><g data-name="Warstwa 1"><circle cx="39.88" cy="39.88" r="39.88" transform="rotate(-84.35 39.876 39.884)" fill="#c7eafb"/><path d="M49 51.38c-.12-1.37.57-9.05 1.23-16.47C51.15 24.63 52.19 13 52 9.38l-.07-1.11H40.44l-1.68 3.92L38 8.27h-7.82l.11 1.29c0 .19 1.64 19.64 0 31.4-1.67 11.95-2.47 29.12-2.48 29.29l-.05 1.24h7.94l.18-1c0-.2.39-1.89 1.8-1.89 1.2 0 1.36 1.59 1.38 1.76l.07 1.1h12.41l-.18-1.34C51.34 70 49.29 54.67 49 51.38zM36 10.64l1.17 5.6c0 .72-.1 6.45-4 18.39a212 212 0 0 0-.48-24zm5.19 58.48a3.64 3.64 0 0 0-3.53-2.85 4.13 4.13 0 0 0-3.84 2.85h-3.57c.19-3.71.84-15.11 2-24.62 7-17.94 7.32-26.51 7.32-28.16l2.43-5.7h1.6c.63 10.94-2.84 29.8-3.39 32.74-1.94 1.37-2.05 6.35-2.05 7.48s.11 6 2 7.43c.32 4 2.75 8.38 4.29 10.83zm.85-18.26a14 14 0 0 1-.77 5.06 14 14 0 0 1-.77-5.06 14 14 0 0 1 .77-5.07 14 14 0 0 1 .79 5.07zm5.21 18.26c-1.07-1.57-4.36-6.67-4.76-10.89 1.8-1.5 1.91-6.28 1.91-7.37s-.1-5.75-1.84-7.31c.72-3.79 4-21.85 3.39-32.91h3.66c0 4.36-.93 14.78-1.75 24.06-.85 9.49-1.36 15.38-1.23 16.89.25 2.79 1.68 13.68 2.19 17.53z" fill="#6dcff6"/></g></g></svg>