<?xml version="1.0" encoding="utf-8"?>
<!-- Generator: Adobe Illustrator 16.0.3, SVG Export Plug-In . SVG Version: 6.00 Build 0)  -->
<!DOCTYPE svg PUBLIC "-//W3C//DTD SVG 1.1//EN" "http://www.w3.org/Graphics/SVG/1.1/DTD/svg11.dtd">
<svg version="1.1" id="Warstwa_1" xmlns="http://www.w3.org/2000/svg" xmlns:xlink="http://www.w3.org/1999/xlink" x="0px" y="0px"
	 width="841.89px" height="595.281px" viewBox="0 0 841.89 595.281" enable-background="new 0 0 841.89 595.281"
	 xml:space="preserve">
<g id="Layer_6" display="none">
	<rect x="-3117.215" y="-750.295" display="inline" fill="#E2E2E2" width="7729.919" height="3622.541"/>
</g>
<g id="Style_1" display="none">
	<g display="inline">
		<path fill="#E02F2F" d="M420.945,0c-164.39,0-297.64,133.25-297.64,297.64c0,164.371,133.25,297.641,297.64,297.641
			c164.391,0,297.641-133.27,297.641-297.641C718.585,133.25,585.335,0,420.945,0z"/>
		<path fill="none" stroke="#FF6666" stroke-width="0.5" stroke-miterlimit="10" d="M420.945,25.281
			c-150.42,0-272.359,121.939-272.359,272.359S270.525,570,420.945,570S693.304,448.06,693.304,297.64
			S571.365,25.281,420.945,25.281z"/>
	</g>
	<path display="inline" fill="#FFFFFF" d="M472.289,192.722c0-26.49,53.24-40.219,53.24,4.576
		c-0.15,24.592-3.535,47.288-8.949,68.066h55.344c4.203-25.076,4.037-49.874,4.037-79.079c0-82.242-155.016-95.952-155.016,8.259
		c0,73.164,35.215,111.671,72.047,131.947c-30.676,58.971-72.047,91.098-72.047,91.098
		c-115.782-92.324-104.583-248.623-104.583-248.623H265.93c0.949,211.158,114.889,285.175,128.897,296.169
		c13.989,10.994,16.798,10.064,33.614,9.135c16.779-0.912,55.045-38.414,101.756-109.662c4.502-6.9,8.559-13.506,12.223-19.924
		c19.551,4.279,33.521,4.373,33.521,4.373v-44.795C477.886,295.092,472.289,212.85,472.289,192.722z"/>
</g>
<g id="Style_1_copy" display="none">
	<g display="inline">
		<path fill="#E02F2F" d="M420.945,0c-164.39,0-297.64,133.25-297.64,297.64c0,164.371,133.25,297.641,297.64,297.641
			c164.391,0,297.641-133.27,297.641-297.641C718.585,133.25,585.335,0,420.945,0z"/>
		<path fill="none" stroke="#FF6666" stroke-width="0.5" stroke-miterlimit="10" d="M420.945,25.281
			c-150.42,0-272.359,121.939-272.359,272.359S270.525,570,420.945,570S693.304,448.06,693.304,297.64
			S571.365,25.281,420.945,25.281z"/>
	</g>
	<path display="inline" fill="#FFFFFF" d="M472.289,192.722c0-26.49,53.24-40.219,53.24,4.576
		c-0.15,24.592-3.535,47.288-8.949,68.066h55.344c4.203-25.076,4.037-49.874,4.037-79.079c0-82.242-155.016-95.952-155.016,8.259
		c0,73.164,35.215,111.671,72.047,131.947c-30.676,58.971-72.047,91.098-72.047,91.098
		c-115.782-92.324-104.583-248.623-104.583-248.623H265.93c0.949,211.158,114.889,285.175,128.897,296.169
		c13.989,10.994,16.798,10.064,33.614,9.135c16.779-0.912,55.045-38.414,101.756-109.662c4.502-6.9,8.559-13.506,12.223-19.924
		c19.551,4.279,33.521,4.373,33.521,4.373v-44.795C477.886,295.092,472.289,212.85,472.289,192.722z"/>
</g>
<g id="Style_2" display="none">
	<g display="inline">
		<g>
			<path fill="#FFFFFF" d="M420.945,588.304c-160.261,0-290.664-130.404-290.664-290.664c0-160.261,130.403-290.664,290.664-290.664
				c160.26,0,290.664,130.403,290.664,290.664C711.609,457.9,581.205,588.304,420.945,588.304z"/>
			<path fill="#E5E5E5" d="M420.945,13.952c156.428,0,283.688,127.259,283.688,283.688c0,156.428-127.26,283.688-283.688,283.688
				c-156.429,0-283.688-127.26-283.688-283.688C137.256,141.211,264.516,13.952,420.945,13.952 M420.945,0
				c-164.39,0-297.64,133.25-297.64,297.64c0,164.371,133.25,297.641,297.64,297.641c164.391,0,297.641-133.27,297.641-297.641
				C718.585,133.25,585.335,0,420.945,0L420.945,0z"/>
		</g>
	</g>
	<path display="inline" fill="#333333" d="M472.289,192.722c0-26.49,53.24-40.219,53.24,4.576
		c-0.15,24.592-3.535,47.288-8.949,68.066h55.344c4.203-25.076,4.037-49.874,4.037-79.079c0-82.242-155.016-95.952-155.016,8.259
		c0,73.164,35.215,111.671,72.047,131.947c-30.676,58.971-72.047,91.098-72.047,91.098
		c-115.782-92.324-104.583-248.623-104.583-248.623H265.93c0.949,211.158,114.889,285.175,128.897,296.169
		c13.989,10.994,16.798,10.064,33.614,9.135c16.779-0.912,55.045-38.414,101.756-109.662c4.502-6.9,8.559-13.506,12.223-19.924
		c19.551,4.279,33.521,4.373,33.521,4.373v-44.795C477.886,295.092,472.289,212.85,472.289,192.722z"/>
</g>
<g>
	<g>
		<path fill="#DAEBFB" d="M420.945,0c-164.39,0-297.64,133.25-297.64,297.64c0,164.371,133.25,297.641,297.64,297.641
			c164.391,0,297.641-133.27,297.641-297.641C718.585,133.25,585.335,0,420.945,0z"/>
	</g>
</g>
<g>
	<path fill="#9BCDF2" d="M214.55,246.799l8.111,41.595c2.065,10.603,4.148,21.839,5.823,33.484h0.409
		c2.083-11.645,5.004-23.289,7.478-33.279l10.827-41.8h24.965l10.175,40.554c2.716,11.441,5.414,22.881,7.497,34.525h0.409
		c1.451-11.645,3.535-23.084,5.823-34.73l8.743-40.349h30.992l-31.215,101.7h-29.727l-9.58-35.791
		c-2.493-9.99-4.372-19.142-6.437-31.606h-0.41c-1.878,12.687-3.943,22.043-6.66,31.606L241.58,348.48h-29.727l-29.541-101.699
		h32.238V246.799z"/>
	<path fill="#9BCDF2" d="M376.448,246.799l8.11,41.595c2.065,10.603,4.148,21.839,5.823,33.484h0.409
		c2.083-11.645,5.004-23.289,7.479-33.279l10.827-41.8h24.965l10.176,40.554c2.715,11.441,5.412,22.881,7.496,34.525h0.41
		c1.449-11.645,3.533-23.084,5.822-34.73l8.742-40.349h30.992l-31.215,101.7h-29.727l-9.563-35.773
		c-2.492-9.988-4.371-19.141-6.436-31.605h-0.428c-1.879,12.687-3.944,22.044-6.66,31.605L403.477,348.5H373.75l-29.541-101.7
		H376.448z"/>
	<path fill="#9BCDF2" d="M538.328,246.799l8.109,41.595c2.064,10.603,4.148,21.839,5.822,33.484h0.41
		c2.084-11.645,5.004-23.289,7.479-33.279l10.826-41.8h24.965l10.176,40.554c2.715,11.441,5.412,22.881,7.496,34.525h0.41
		c1.451-11.645,3.533-23.084,5.822-34.73l8.742-40.349h30.992l-31.215,101.7h-29.727l-9.563-35.773
		c-2.492-9.988-4.371-19.141-6.436-31.605h-0.428c-1.879,12.687-3.943,22.044-6.66,31.605L565.357,348.5h-29.729l-29.539-101.7
		H538.328z"/>
</g>
<g id="Style_2_copy" display="none">
	<g display="inline">
		<g>
			<path fill="#FFFFFF" d="M420.945,581.328c-156.429,0-283.688-127.26-283.688-283.688c0-156.429,127.26-283.688,283.688-283.688
				c156.428,0,283.688,127.259,283.688,283.688C704.632,454.068,577.373,581.328,420.945,581.328z"/>
			<path fill="#FF0000" d="M420.945,27.904c148.727,0,269.736,121.009,269.736,269.736c0,148.727-121.01,269.736-269.736,269.736
				c-148.727,0-269.736-121.01-269.736-269.736C151.208,148.913,272.218,27.904,420.945,27.904 M420.945,0
				c-164.39,0-297.64,133.25-297.64,297.64c0,164.371,133.25,297.641,297.64,297.641c164.391,0,297.641-133.27,297.641-297.641
				C718.585,133.25,585.335,0,420.945,0L420.945,0z"/>
		</g>
	</g>
	<path display="inline" d="M472.289,192.722c0-26.49,53.24-40.219,53.24,4.576c-0.15,24.592-3.535,47.288-8.949,68.066h55.344
		c4.203-25.076,4.037-49.874,4.037-79.079c0-82.242-155.016-95.952-155.016,8.259c0,73.164,35.215,111.671,72.047,131.947
		c-30.676,58.971-72.047,91.098-72.047,91.098c-115.782-92.324-104.583-248.623-104.583-248.623H265.93
		c0.949,211.158,114.889,285.175,128.897,296.169c13.989,10.994,16.798,10.064,33.614,9.135
		c16.779-0.912,55.045-38.414,101.756-109.662c4.502-6.9,8.559-13.506,12.223-19.924c19.551,4.279,33.521,4.373,33.521,4.373
		v-44.795C477.886,295.092,472.289,212.85,472.289,192.722z"/>
</g>
<g id="Style_2_copy_2" display="none">
	<path display="inline" fill="#FFFFFF" d="M420.945,581.328c-156.429,0-283.688-127.26-283.688-283.688
		c0-156.429,127.26-283.688,283.688-283.688c156.428,0,283.688,127.259,283.688,283.688
		C704.632,454.068,577.373,581.328,420.945,581.328z"/>
	<path display="inline" fill="#8AD5DD" d="M420.945,27.904c148.727,0,269.736,121.009,269.736,269.736
		c0,148.727-121.01,269.736-269.736,269.736c-148.727,0-269.736-121.01-269.736-269.736
		C151.208,148.913,272.218,27.904,420.945,27.904 M420.945,0c-164.39,0-297.64,133.25-297.64,297.64
		c0,164.371,133.25,297.641,297.64,297.641c164.391,0,297.641-133.27,297.641-297.641C718.585,133.25,585.335,0,420.945,0L420.945,0
		z"/>
	<path display="inline" fill="#333333" d="M472.289,192.722c0-26.49,53.24-40.219,53.24,4.576
		c-0.15,24.592-3.535,47.288-8.949,68.066h55.344c4.203-25.076,4.037-49.874,4.037-79.079c0-82.242-155.016-95.952-155.016,8.259
		c0,73.164,35.215,111.671,72.047,131.947c-30.676,58.971-72.047,91.098-72.047,91.098
		c-115.782-92.324-104.583-248.623-104.583-248.623H265.93c0.949,211.158,114.889,285.175,128.897,296.169
		c13.989,10.994,16.798,10.064,33.614,9.135c16.779-0.912,55.045-38.414,101.756-109.662c4.502-6.9,8.559-13.506,12.223-19.924
		c19.551,4.279,33.521,4.373,33.521,4.373v-44.795C477.886,295.092,472.289,212.85,472.289,192.722z"/>
</g>
<g id="Style_3" display="none">
	<g display="inline">
		<g>
			<path fill="#FFFFFF" d="M420.945,588.304c-160.261,0-290.664-130.404-290.664-290.664c0-160.261,130.403-290.664,290.664-290.664
				c160.26,0,290.664,130.403,290.664,290.664C711.609,457.9,581.205,588.304,420.945,588.304z"/>
			<path fill="#E5E5E5" d="M420.945,13.952c156.428,0,283.688,127.259,283.688,283.688c0,156.428-127.26,283.688-283.688,283.688
				c-156.429,0-283.688-127.26-283.688-283.688C137.256,141.211,264.516,13.952,420.945,13.952 M420.945,0
				c-164.39,0-297.64,133.25-297.64,297.64c0,164.371,133.25,297.641,297.64,297.641c164.391,0,297.641-133.27,297.641-297.641
				C718.585,133.25,585.335,0,420.945,0L420.945,0z"/>
		</g>
	</g>
	<path display="inline" fill="#FF3878" d="M472.289,192.722c0-26.49,53.24-40.219,53.24,4.576
		c-0.15,24.592-3.535,47.288-8.949,68.066h55.344c4.203-25.076,4.037-49.874,4.037-79.079c0-82.242-155.016-95.952-155.016,8.259
		c0,73.164,35.215,111.671,72.047,131.947c-30.676,58.971-72.047,91.098-72.047,91.098
		c-115.782-92.324-104.583-248.623-104.583-248.623H265.93c0.949,211.158,114.889,285.175,128.897,296.169
		c13.989,10.994,16.798,10.064,33.614,9.135c16.779-0.912,55.045-38.414,101.756-109.662c4.502-6.9,8.559-13.506,12.223-19.924
		c19.551,4.279,33.521,4.373,33.521,4.373v-44.795C477.886,295.092,472.289,212.85,472.289,192.722z"/>
</g>
<g id="Style_3_copy_2" display="none">
	<path display="inline" fill="#32BEA6" d="M507.224,121.363c0-44.516,89.439-67.564,89.439,7.702
		c-0.26,41.316-5.934,79.451-15.029,114.368h92.992c7.07-42.153,6.771-83.805,6.771-132.859
		c0-138.198-260.453-161.209-260.453,13.877c0,122.944,59.174,187.645,121.064,221.705
		c-51.566,99.039-121.064,153.023-121.064,153.023C226.418,344.072,245.244,81.423,245.244,81.423h-84.753
		c1.6,354.805,193.038,479.182,216.589,497.635c23.514,18.455,28.22,16.91,56.496,15.348
		c28.184-1.525,92.492-64.531,170.957-184.238c7.553-11.609,14.361-22.678,20.537-33.467c32.834,7.199,56.328,7.348,56.328,7.348
		v-75.266C516.636,293.361,507.224,155.182,507.224,121.363z"/>
</g>
<g id="Style_3_copy" display="none">
	<g display="inline">
		<g>
			<path fill="#FFFFFF" d="M420.945,588.304c-160.261,0-290.664-130.404-290.664-290.664c0-160.261,130.403-290.664,290.664-290.664
				c160.26,0,290.664,130.403,290.664,290.664C711.609,457.9,581.205,588.304,420.945,588.304z"/>
			<path fill="#E5E5E5" d="M420.945,13.952c156.428,0,283.688,127.259,283.688,283.688c0,156.428-127.26,283.688-283.688,283.688
				c-156.429,0-283.688-127.26-283.688-283.688C137.256,141.211,264.516,13.952,420.945,13.952 M420.945,0
				c-164.39,0-297.64,133.25-297.64,297.64c0,164.371,133.25,297.641,297.64,297.641c164.391,0,297.641-133.27,297.641-297.641
				C718.585,133.25,585.335,0,420.945,0L420.945,0z"/>
		</g>
	</g>
	<path display="inline" fill="#0BA4E0" d="M472.289,192.722c0-26.49,53.24-40.219,53.24,4.576
		c-0.15,24.592-3.535,47.288-8.949,68.066h55.344c4.203-25.076,4.037-49.874,4.037-79.079c0-82.242-155.016-95.952-155.016,8.259
		c0,73.164,35.215,111.671,72.047,131.947c-30.676,58.971-72.047,91.098-72.047,91.098
		c-115.782-92.324-104.583-248.623-104.583-248.623H265.93c0.949,211.158,114.889,285.175,128.897,296.169
		c13.989,10.994,16.798,10.064,33.614,9.135c16.779-0.912,55.045-38.414,101.756-109.662c4.502-6.9,8.559-13.506,12.223-19.924
		c19.551,4.279,33.521,4.373,33.521,4.373v-44.795C477.886,295.092,472.289,212.85,472.289,192.722z"/>
</g>
<g id="Style_3_copy_3" display="none">
</g>
<g id="Style_3_copy_4" display="none">
</g>
</svg>
