<svg xmlns="http://www.w3.org/2000/svg" width="841.89" height="595.281" viewBox="0 0 841.89 595.281"><path fill="#DAEBFB" d="M420.945-.093c-164.39 0-297.64 133.25-297.64 297.64 0 164.373 133.25 297.64 297.64 297.64 164.391 0 297.641-133.268 297.641-297.64-.001-164.39-133.251-297.64-297.641-297.64z"/><path fill="#9BCDF2" d="M420.889 282.795c0-.019 117.772.167 131.743 14.138 14.025 13.988 14.193 83.004 14.193 83.395 0 0-.111 69.389-14.193 83.414-13.99 13.934-131.743 14.25-131.743 14.25s-117.754-.297-131.762-14.25c-14.026-13.988-14.045-82.893-14.045-83.414 0-.391.037-69.406 14.045-83.395 14.008-13.952 131.762-14.138 131.762-14.138z"/><path fill="#DAEBFB" d="M541.693 396.699v-22.063c0-8.203-2.082-14.492-6.25-18.863-4.186-4.371-10.176-6.566-17.969-6.566-7.627 0-13.822 2.361-18.641 7.088-4.799 4.725-7.236 10.863-7.236 18.342v38.861c0 8.352 2.232 14.9 6.586 19.625 4.371 4.762 10.398 7.125 18.006 7.125 8.465 0 14.846-2.232 19.088-6.697 4.297-4.521 6.398-11.199 6.398-20.072v-4.445h-17.486v3.943c0 5.115-.596 8.389-1.711 9.877-1.117 1.488-3.088 2.232-5.916 2.232-2.717 0-4.613-.855-5.768-2.623-1.098-1.768-1.654-4.93-1.654-9.486V396.7h32.553zm-32.553-13.506v-8.742c0-3.629.576-6.232 1.748-7.758 1.189-1.619 3.145-2.381 5.842-2.381 2.584 0 4.502.762 5.635 2.381 1.191 1.525 1.805 4.129 1.805 7.758v8.742h-15.03zm-30.713-27.401c-2.828-3.666-6.939-5.508-12.334-5.508-2.643 0-5.246.67-7.85 2.066-2.568 1.357-4.986 3.385-7.293 6.008v-37.781h-17.189v117.307h17.189v-6.641c2.213 2.678 4.67 4.594 7.273 5.859 2.586 1.266 5.543 1.879 8.893 1.879 5.041 0 8.93-1.6 11.57-4.893 2.68-3.273 4-7.961 4-14.082v-48.031c.001-7.087-1.395-12.501-4.259-16.183zm-13.246 61.815c0 2.791-.52 4.744-1.488 5.953-.967 1.246-2.492 1.842-4.576 1.842-1.451 0-2.789-.316-4.111-.93-1.32-.596-2.678-1.674-4.055-3.051v-53.93c1.154-1.189 2.326-2.082 3.516-2.641a8.081 8.081 0 0 1 3.609-.838c2.287 0 4.074.744 5.301 2.252 1.191 1.506 1.805 3.738 1.805 6.641v44.702h-.001zm-61.22 20.26v-9.506c-3.163 3.516-6.418 6.193-9.841 8.018-3.404 1.859-6.697 2.752-9.878 2.752-3.944 0-6.864-1.264-8.892-3.869-1.953-2.586-2.977-6.418-2.977-11.59v-72.363h17.003v66.375c0 2.064.354 3.533 1.042 4.463.744.932 1.916 1.377 3.498 1.377 1.246 0 2.846-.596 4.762-1.842 1.916-1.227 3.665-2.752 5.283-4.631v-65.742h16.984v86.559h-16.984v-.001zm-58.896-100.25v100.25h-19.198v-100.25h-19.83v-17.039h58.859v17.039z"/><path fill="#9BCDF2" d="M516.673 246.502h-19.16v-10.529c-3.498 3.87-7.182 6.846-11.014 8.855-3.813 2.028-7.516 3.051-11.105 3.051-4.465 0-7.775-1.432-10.008-4.26-2.232-2.846-3.367-7.088-3.367-12.78v-79.674h19.123v73.089c0 2.25.447 3.888 1.246 4.892.781 1.023 2.104 1.525 3.889 1.525 1.395 0 3.182-.669 5.34-2.009a25.438 25.438 0 0 0 5.896-5.134v-72.364h19.16v95.338zm-77.777-90.817c-5.078-4.614-11.59-6.939-19.514-6.939-8.688 0-15.645 2.195-20.779 6.567-5.171 4.372-7.757 10.25-7.738 17.654v49.408c0 8.111 2.53 14.547 7.534 19.347 5.042 4.781 11.757 7.18 20.128 7.18 8.725 0 15.534-2.325 20.538-6.957 4.947-4.651 7.422-11.031 7.422-19.179v-49.26c-.019-7.256-2.55-13.208-7.591-17.821zm-11.943 68.512c0 2.53-.762 4.539-2.287 6.027-1.545 1.451-3.59 2.177-6.176 2.177-2.548 0-4.502-.707-5.841-2.14-1.358-1.451-2.065-3.46-2.065-6.064v-51.938c0-2.083.744-3.776 2.195-5.06 1.47-1.283 3.367-1.916 5.711-1.916 2.511 0 4.557.633 6.12 1.916 1.563 1.284 2.344 2.977 2.344 5.06v51.938zm-88.268-106.908h-21.728l25.671 78.019v51.194h21.579V192.89l25.095-75.601H367.37l-13.32 51.64h-1.358z"/></svg>